<svg xmlns="http://www.w3.org/2000/svg" xmlns:svg="http://www.w3.org/2000/svg" xmlns:xlink="http://www.w3.org/1999/xlink" id="svg17" width="16" height="16" version="1.1" viewBox="0 0 4.233 4.233"><defs id="defs21"><linearGradient id="linearGradient835"><stop style="stop-color:#000;stop-opacity:1" id="stop831" offset="0"/><stop style="stop-color:#000;stop-opacity:.36448598" id="stop833" offset="1"/></linearGradient><linearGradient id="linearGradient4531"><stop style="stop-color:#275ace;stop-opacity:1" id="stop4527" offset="0"/><stop style="stop-color:#86acf4;stop-opacity:1" id="stop4529" offset="1"/></linearGradient><linearGradient id="linearGradient4533" x1="2.102" x2="2.092" y1="3.622" y2=".391" gradientTransform="matrix(1.0013925,0,0,1.0023637,-7.79025e-4,0.00648041)" gradientUnits="userSpaceOnUse" xlink:href="#linearGradient4531"/><linearGradient id="linearGradient837" x1="2.381" x2="2.381" y1="3.44" y2=".529" gradientTransform="matrix(1.0013078,0,0,1.0144056,-6.00025e-4,-0.04127896)" gradientUnits="userSpaceOnUse" xlink:href="#linearGradient835"/><filter style="color-interpolation-filters:sRGB" id="filter853" width="1.024" height="1.024" x="-.012" y="-.012"><feGaussianBlur id="feGaussianBlur855" stdDeviation=".006"/></filter></defs><metadata id="metadata2"/><path id="path31" d="m -0.40039604,1.7544994 c 0,0.3478502 -0.2822658,0.6298425 -0.63045336,0.6298425 -0.3481875,0 -0.6304533,-0.2819923 -0.6304533,-0.6298425 0,-0.3478502 0.2822658,-0.6298425 0.6304533,-0.6298425 0.34818756,0 0.63045336,0.2819923 0.63045336,0.6298425 z" style="opacity:.98999999;fill:gray;stroke-width:.19692118;filter:url(#filter853)"/><rect id="rect4" width="3.699" height="3.696" x=".269" y=".266" style="fill:none;stroke-width:.21663497"/><path id="path6" d="m 2.1166667,0.26458333 c -1.022874,0 -1.85208273,0.82920817 -1.85208273,1.85208267 0,1.0228747 0.82920873,1.8520829 1.85208273,1.8520829 1.022875,0 1.852083,-0.8292082 1.852083,-1.8520829 0,-1.0228745 -0.829208,-1.85208267 -1.852083,-1.85208267 z" style="opacity:1;fill:url(#linearGradient4533);fill-opacity:1;stroke:url(#linearGradient837);stroke-width:0;stroke-miterlimit:4;stroke-dasharray:none;stroke-opacity:.68224332"/><ellipse style="opacity:1;fill:#2b61df;fill-opacity:.94117647;stroke:none;stroke-width:.05559141;stroke-miterlimit:4;stroke-dasharray:none;stroke-opacity:1" id="path4737" cx="2.117" cy="2.133" rx="1.852" ry="1.827"/><circle style="fill:#fff;fill-opacity:1;stroke-width:.26458332" id="path4560" cx="2.097" cy="2.12" r=".661"/></svg>