<svg xmlns="http://www.w3.org/2000/svg" xmlns:svg="http://www.w3.org/2000/svg" xmlns:xlink="http://www.w3.org/1999/xlink" id="svg14" width="32" height="32" version="1.1" viewBox="0 0 8.467 8.467"><defs id="defs18"><linearGradient id="linearGradient4524"><stop style="stop-color:#275bd2;stop-opacity:1" id="stop4520" offset="0"/><stop style="stop-color:#2d66ea;stop-opacity:1" id="stop4522" offset="1"/></linearGradient><linearGradient id="linearGradient4528" x1="2.117" x2="2.117" y1="3.228" y2=".757" gradientTransform="matrix(0.99999946,0,0,1.0709539,1.2514613e-7,-0.28159848)" gradientUnits="userSpaceOnUse" xlink:href="#linearGradient4524"/></defs><metadata id="metadata2"/><g id="g826" transform="matrix(1.9999997,0,0,1.9955779,1.049669e-6,0.01754936)"><rect id="rect4" width="3.241" height="3.241" x=".49" y="-3.737" rx=".232" transform="rotate(90)" style="fill:#fff;stroke-width:.23151"/><rect id="rect8" width="3.704" height="3.704" x=".265" y=".265" rx="1.058" ry="1.058" style="fill:url(#linearGradient4528);fill-opacity:1;stroke:#000;stroke-width:0;stroke-miterlimit:4;stroke-dasharray:none;stroke-opacity:1"/><path id="path10" d="M 1.2534372,0.25638132 C 0.83447128,0.25451306 0.30070904,0.6890109 0.28004959,1.0515269 l -0.0154663,0.2713898 c 0,-0.36311422 0.59308748,-0.90655913 1.01205321,-0.90465691 l 1.7032592,0.007733 C 3.3988618,0.42789527 3.96875,0.95980248 3.96875,1.3229167 L 3.9610169,1.0824598 C 3.9493454,0.71954319 3.4065952,0.26598271 2.9876288,0.26411445 Z" style="opacity:1;fill:#6797f3;fill-opacity:1;stroke-width:1.07417488"/><path style="opacity:1;fill:#263fc3;fill-opacity:1;stroke-width:.21704" id="path15" d="M 2.9488176,1.26162 C 2.8869356,1.274642 2.8253131,1.31371 2.7867603,1.37014 L 1.7912629,2.8286487 1.4131358,2.4505216 c -0.096479,-0.096479 -0.2507897,-0.096479 -0.347264,0 -0.0964786,0.096479 -0.0964786,0.2507898 0,0.3472641 l 0.5478958,0.5478957 0.038585,0.038581 c 0.010396,0.010266 0.018336,0.022294 0.030867,0.030872 0.00965,0.00662 0.020696,0.010374 0.03087,0.015432 0.012618,0.00623 0.025303,0.011503 0.038583,0.015453 0.0075,0.00239 0.015557,0.00619 0.023128,0.0077 0.00486,0.00109 0.010512,-6.509e-4 0.015441,0 0.020836,0.00267 0.040884,0.00267 0.061735,0 0.020836,-0.00271 0.04198,-0.00738 0.061737,-0.015453 0.031013,-0.012263 0.060485,-0.029314 0.084887,-0.054021 0.010279,-0.010396 0.022294,-0.018383 0.030867,-0.030865 L 3.1957555,1.6474498 C 3.2728568,1.534882 3.2465884,1.3772784 3.1340206,1.3001858 3.0777356,1.2616352 3.0106941,1.2500301 2.9488139,1.2616005 Z"/><path style="fill:#dee8fa;fill-opacity:1;stroke-width:.21704" id="path17" d="M 2.9488176,1.0163648 C 2.8869356,1.0272168 2.8253131,1.066284 2.7867603,1.1227144 L 1.7912629,2.5812232 1.4131358,2.2030961 c -0.096479,-0.096481 -0.2507897,-0.096481 -0.347264,0 -0.0964786,0.096477 -0.0964786,0.2507897 0,0.347264 l 0.5478958,0.5478958 0.038585,0.038583 c 0.010396,0.010266 0.018336,0.022294 0.030867,0.03087 0.00965,0.00662 0.020696,0.010375 0.03087,0.015432 0.012618,0.00623 0.025303,0.011503 0.038583,0.015432 0.0075,0.00239 0.015557,0.00619 0.023128,0.0077 0.00486,0.00109 0.010512,-6.508e-4 0.015441,0 0.020836,0.00267 0.040884,0.00267 0.061735,0 0.020836,-0.00271 0.04198,-0.00738 0.061737,-0.015432 0.031013,-0.012263 0.060485,-0.029316 0.084887,-0.054021 0.010279,-0.010396 0.022294,-0.018362 0.030867,-0.030865 L 3.1957338,1.4005017 C 3.2728351,1.2879339 3.2465667,1.1303303 3.1339989,1.0532377 3.0777139,1.0146893 3.0106724,1.003082 2.9487922,1.0146545 Z"/></g></svg>