<svg xmlns="http://www.w3.org/2000/svg" xmlns:svg="http://www.w3.org/2000/svg" xmlns:xlink="http://www.w3.org/1999/xlink" id="svg14" width="16" height="16" version="1.1" viewBox="0 0 4.233 4.233"><defs id="defs18"><linearGradient id="linearGradient4524"><stop style="stop-color:#355de9;stop-opacity:1" id="stop4520" offset="0"/><stop style="stop-color:#2245bf;stop-opacity:1" id="stop4522" offset="1"/></linearGradient><linearGradient id="linearGradient4528" x1="2.117" x2="2.117" y1="3.228" y2=".757" gradientTransform="matrix(0.99999946,0,0,1.0709539,1.2514613e-7,-0.28159848)" gradientUnits="userSpaceOnUse" xlink:href="#linearGradient4524"/></defs><metadata id="metadata2"/><rect style="fill:#fff;stroke-width:.23151" id="rect4" width="3.241" height="3.241" x=".49" y="-3.737" rx=".232" transform="rotate(90)"/><rect style="fill:url(#linearGradient4528);fill-opacity:1;stroke:#000;stroke-width:0;stroke-miterlimit:4;stroke-dasharray:none;stroke-opacity:1" id="rect8" width="3.704" height="3.704" x=".265" y=".265" rx="1.058" ry="1.058"/><path style="opacity:1;fill:#4f72ed;fill-opacity:1;stroke-width:1.07417488" id="path10" d="M 1.2534372,0.25638132 C 0.83447128,0.25451306 0.30070904,0.6890109 0.28004959,1.0515269 l -0.0154663,0.2713898 c 0,-0.36311422 0.59308748,-0.90655913 1.01205321,-0.90465691 l 1.7032592,0.007733 C 3.3988618,0.42789527 3.96875,0.95980248 3.96875,1.3229167 L 3.9610169,1.0824598 C 3.9493454,0.71954319 3.4065952,0.26598271 2.9876288,0.26411445 Z"/><rect style="opacity:.70099996;stroke-width:.21614;fill:#003380" id="rect17" width="2.306" height=".484" x=".972" y="2.036" rx=".279" ry=".242"/><rect style="fill:#e9f1fc;stroke-width:.21614" id="rect19" width="2.306" height=".484" x=".972" y="1.863" rx=".279" ry=".242"/></svg>